HIERARCHY
ROOT Hips
{
	OFFSET	0.00	0.00	0.00
	CHANNELS 6 Xposition Yposition Zposition Zrotation Xrotation Yrotation
	JOINT LeftUpLeg
	{
		OFFSET	 0.126116	-0.014019	-0.065224
		CHANNELS 3 Zrotation Xrotation Yrotation
		JOINT LeftLeg
		{
			OFFSET	 0.000000	 0.000000	 0.569914
			CHANNELS 3 Zrotation Xrotation Yrotation
			JOINT LeftFoot
			{
				OFFSET	 0.000000	 0.000000	 0.544423
				CHANNELS 3 Zrotation Xrotation Yrotation
				JOINT LeftToeBase
				{
					OFFSET	 0.000000	 0.000000	 0.207117
					CHANNELS 3 Zrotation Xrotation Yrotation
					End Site
					{
						OFFSET	 0.000000	 0.000000	 0.207117
					}
				}
			}
		}
	}
	JOINT RightUpLeg
	{
		OFFSET	-0.124023	-0.008373	-0.065224
		CHANNELS 3 Zrotation Xrotation Yrotation
		JOINT RightLeg
		{
			OFFSET	 0.000000	 0.000000	 0.570047
			CHANNELS 3 Zrotation Xrotation Yrotation
			JOINT RightFoot
			{
				OFFSET	 0.000000	 0.000000	 0.544354
				CHANNELS 3 Zrotation Xrotation Yrotation
				JOINT RightToeBase
				{
					OFFSET	 0.000000	 0.000000	 0.207540
					CHANNELS 3 Zrotation Xrotation Yrotation
					End Site
					{
						OFFSET	 0.000000	 0.000000	 0.207540
					}
				}
			}
		}
	}
	JOINT Spine
	{
		OFFSET	 0.000184	-0.007763	 0.117403
		CHANNELS 3 Zrotation Xrotation Yrotation
		JOINT Spine1
		{
			OFFSET	 0.000000	 0.000000	 0.137269
			CHANNELS 3 Zrotation Xrotation Yrotation
			JOINT Spine2
			{
				OFFSET	 0.000000	 0.000000	 0.156879
				CHANNELS 3 Zrotation Xrotation Yrotation
				JOINT LeftShoulder
				{
					OFFSET	 0.080501	-0.002496	 0.160144
					CHANNELS 3 Zrotation Xrotation Yrotation
					JOINT LeftArm
					{
						OFFSET	 0.000000	 0.000000	 0.164363
						CHANNELS 3 Zrotation Xrotation Yrotation
						JOINT LeftForeArm
						{
							OFFSET	 0.000000	 0.000000	 0.364576
							CHANNELS 3 Zrotation Xrotation Yrotation
							JOINT LeftHand
							{
								OFFSET	 0.000000	 0.000000	 0.360812
								CHANNELS 3 Zrotation Xrotation Yrotation
								JOINT LeftHandIndex1
								{
									OFFSET	 0.000000	 0.000000	 0.086006
									CHANNELS 3 Zrotation Xrotation Yrotation
									JOINT LeftHandIndex2
									{
										OFFSET	 0.000000	 0.000000	 0.047236
										CHANNELS 3 Zrotation Xrotation Yrotation
										JOINT LeftHandIndex3
										{
											OFFSET	-0.004284	-0.000551	 0.038166
											CHANNELS 3 Zrotation Xrotation Yrotation
											End Site
											{
												OFFSET	-0.004284	-0.000551	 0.038166
											}
										}
									}
								}
							}
						}
					}
				}
				JOINT Neck
				{
					OFFSET	 0.000000	 0.000000	 0.176489
					CHANNELS 3 Zrotation Xrotation Yrotation
					JOINT Head
					{
						OFFSET	 0.000000	-0.001747	 0.077940
						CHANNELS 3 Zrotation Xrotation Yrotation
						End Site
						{
							OFFSET	 0.000000	-0.001747	 0.077940
						}
					}
				}
				JOINT RightShoulder
				{
					OFFSET	-0.080363	 0.000306	 0.159706
					CHANNELS 3 Zrotation Xrotation Yrotation
					JOINT RightArm
					{
						OFFSET	 0.000000	 0.000000	 0.164196
						CHANNELS 3 Zrotation Xrotation Yrotation
						JOINT RightForeArm
						{
							OFFSET	 0.000000	 0.000000	 0.365611
							CHANNELS 3 Zrotation Xrotation Yrotation
							JOINT RightHand
							{
								OFFSET	 0.000000	 0.000000	 0.360648
								CHANNELS 3 Zrotation Xrotation Yrotation
								JOINT RightHandIndex1
								{
									OFFSET	 0.000000	 0.000000	 0.069977
									CHANNELS 3 Zrotation Xrotation Yrotation
									JOINT RightHandIndex2
									{
										OFFSET	 0.000000	 0.000000	 0.052305
										CHANNELS 3 Zrotation Xrotation Yrotation
										JOINT RightHandIndex3
										{
											OFFSET	 0.009002	-0.000782	 0.042196
											CHANNELS 3 Zrotation Xrotation Yrotation
											End Site
											{
												OFFSET	 0.009002	-0.000782	 0.042196
											}
										}
									}
								}
							}
						}
					}
				}
			}
		}
	}
}
MOTION
Frames:    5
Frame Time: 0.03333334
-0.040231	 0.263360	 0.987639	 3.410867	 34.314240	-8.571280	 61.392700	-83.902950	-122.081500	 9.176636	-76.072070	 9.316150	 50.908920	 83.705490	-54.070140	-2.385833	 28.452760	 0.000004	 93.473590	-80.611490	-88.177520	-23.877960	-79.966420	-18.464760	 16.909380	 84.440570	-0.518291	 2.384659	 28.388700	-0.000001	-9.468775	 15.497990	 0.543455	-2.033434	 22.005760	 1.254177	-5.262626	-0.118077	 4.262493	-99.268480	 68.215180	 156.445800	 4.480478	-8.787513	-51.124430	-23.663870	 3.029140	-10.520260	-39.591730	-31.910080	-26.172350	-2.027600	 6.559038	 9.033609	-5.188889	 0.308190	 3.541030	-5.234859	 0.342567	 0.430617	 0.706676	 19.374410	-6.870910	-3.935724	-28.425550	-2.372247	 97.533130	 64.703640	-158.897400	-8.456683	 5.533024	 64.559430	 6.767245	 6.907142	 25.503480	 22.527160	-31.939910	 20.649960	 1.803333	 3.979147	-15.098590	 4.898592	 3.004813	-9.310344	 5.224449	 0.395017	 2.014677
-0.039194	 0.260999	 1.002421	 2.936780	 32.984260	-7.687991	 41.832870	-82.429230	-141.925600	 7.371813	-74.260470	 7.499718	 45.817710	 83.622930	-48.675930	-2.385832	 28.452790	-0.000001	 74.301210	-81.247220	-107.161800	-21.351050	-77.966760	-15.866810	 15.259320	 84.029160	 1.116854	 2.384659	 28.388700	-0.000001	-8.218091	 15.478820	 0.326193	-1.637002	 23.095000	 0.756378	-5.276326	-1.827102	 3.754725	-98.822070	 68.428440	 157.499200	 4.349239	-6.301691	-52.520370	-23.215390	 3.020872	-10.513560	-40.365970	-31.314610	-26.791010	-2.027600	 6.559038	 9.033609	-5.188889	 0.308190	 3.541030	-5.234859	 0.342567	 0.430617	-0.178746	 14.003880	-4.776253	-4.446888	-23.065440	-3.098412	 97.239160	 64.406240	-159.914500	-9.247319	 5.704900	 64.341780	 7.381092	 7.602410	 27.190500	 23.007320	-30.961880	 22.374680	 1.803333	 3.979147	-15.098590	 4.898592	 3.004813	-9.310344	 5.224449	 0.395017	 2.014677
-0.037414	 0.258886	 1.020188	 2.579602	 31.376010	-6.840182	 27.830280	-79.889110	-156.017900	 6.171657	-71.903760	 6.264984	 38.799670	 83.249770	-41.565290	-2.385832	 28.452790	-0.000001	 51.259410	-80.513820	-129.795900	-19.283790	-75.503110	-13.704620	 13.558040	 83.475350	 2.729845	 2.384659	 28.388700	-0.000001	-6.962981	 15.508970	 0.147453	-1.171926	 23.907850	 0.216770	-5.405388	-3.609632	 3.202649	-97.899000	 69.582640	 158.659000	 4.875567	-2.536368	-54.290590	-22.576870	 2.993236	-10.476400	-41.349940	-30.714590	-28.100610	-2.027600	 6.559038	 9.033609	-5.188889	 0.308190	 3.541030	-5.234859	 0.342567	 0.430617	-0.802076	 7.144807	-3.229345	-4.714398	-16.317540	-3.382662	 96.824250	 64.211520	-161.144700	-10.519620	 6.202065	 63.644120	 7.260156	 8.375663	 29.823070	 22.611660	-29.477000	 23.545970	 1.803333	 3.979147	-15.098590	 4.898592	 3.004813	-9.310344	 5.224449	 0.395017	 2.014677
-0.034220	 0.257207	 1.043992	 2.073313	 29.112890	-5.642711	 17.830130	-75.866030	-166.237200	 5.390818	-68.601050	 5.409478	 31.135540	 82.587270	-33.929320	-2.385833	 28.452760	 0.000004	 28.851130	-77.574880	-151.703100	-17.681770	-71.952130	-11.936850	 12.010850	 82.746580	 4.282669	 2.384659	 28.388700	-0.000001	-5.496046	 15.689510	-0.093600	-0.651212	 24.634000	-0.415907	-5.555478	-5.881211	 2.577338	-95.804950	 72.891170	 159.970900	 6.420804	 3.928333	-57.131850	-21.604100	 2.933061	-10.387500	-42.719910	-30.034860	-30.081830	-2.027600	 6.559038	 9.033609	-5.188889	 0.308190	 3.541030	-5.234859	 0.342567	 0.430617	-1.248988	-2.231873	-2.214706	-4.816322	-7.239400	-3.119150	 95.799050	 65.894320	-162.394100	-12.443510	 9.488586	 63.162860	 6.126717	 8.909174	 33.105380	 22.190370	-28.429470	 24.470430	 1.803333	 3.979147	-15.098590	 4.898592	 3.004813	-9.310344	 5.224449	 0.395017	 2.014677
-0.030705	 0.254602	 1.065215	 1.841786	 27.063710	-4.617603	 12.702200	-71.967060	-171.470300	 5.257200	-65.540290	 5.167428	 25.886670	 81.792730	-28.821440	-2.385833	 28.452750	 0.000004	 17.224670	-73.828290	-162.853000	-15.164950	-68.722080	-9.348199	 10.988650	 82.206830	 4.828571	 2.384659	 28.388700	-0.000001	-4.269364	 15.775770	-0.384356	-0.226299	 25.001210	-1.031416	-5.654592	-7.725693	 2.211823	-93.561970	 76.211610	 160.853800	 8.422298	 9.307322	-59.975620	-20.661340	 2.861015	-10.275800	-43.262430	-29.496660	-31.540170	-2.027600	 6.559038	 9.033609	-5.188889	 0.308190	 3.541030	-5.234859	 0.342567	 0.430617	-1.559557	-10.472240	-2.464431	-4.806901	 0.583568	-2.192065	 94.675420	 68.099250	-163.503500	-14.457420	 12.839680	 63.169390	 4.986091	 9.323200	 36.364950	 21.899920	-28.121760	 24.881560	 1.803333	 3.979147	-15.098590	 4.898592	 3.004813	-9.310344	 5.224449	 0.395017	 2.014677
